<svg width="72" height="72" viewBox="0 0 72 72" fill="none" xmlns="http://www.w3.org/2000/svg">
<path d="M38.2459 19.5688C37.937 19.6615 37.6127 19.8468 37.2729 20.1248C36.9949 20.3719 36.6706 20.758 36.3 21.283C35.9602 21.8081 35.605 22.534 35.2344 23.4606L25.4124 48.8032C25.2271 49.4209 25.1344 49.9306 25.1344 50.3321C25.1344 50.3939 25.1344 50.5483 25.1344 50.7954C25.1653 51.0425 25.2579 51.2742 25.4124 51.4904C25.5668 51.7375 25.783 51.9073 26.061 52H19.2504C19.4667 51.9382 19.6211 51.7683 19.7138 51.4904C19.7755 51.305 19.8064 51.058 19.8064 50.7491C19.8064 50.6255 19.791 50.4248 19.7601 50.1468C19.7601 49.8379 19.6056 49.282 19.2968 48.4789L9.33578 22.534C9.0578 21.8853 8.76437 21.3757 8.4555 21.0051C8.17752 20.6035 7.91498 20.2947 7.66789 20.0785C7.35902 19.8314 7.08104 19.6615 6.83394 19.5688H13.6445C13.4283 19.6615 13.2738 19.8468 13.1812 20.1248C13.1503 20.2792 13.1349 20.4954 13.1349 20.7734C13.1349 20.897 13.1349 21.1132 13.1349 21.422C13.1657 21.7309 13.3356 22.2869 13.6445 23.0899L23.8835 49.7761L33.3812 25.1748H33.3348L34.0298 23.5069C34.3696 22.5803 34.5549 21.9471 34.5858 21.6074C34.6166 21.2367 34.6321 20.9896 34.6321 20.8661C34.6321 20.5572 34.6012 20.3101 34.5394 20.1248C34.4468 19.8468 34.2769 19.6615 34.0298 19.5688H38.2459ZM57.2836 34.5335C59.7237 34.9659 61.546 35.9234 62.7506 37.406C63.9552 38.8885 64.5574 40.6028 64.5574 42.5486C64.5574 42.8884 64.542 43.2281 64.5111 43.5679C64.3876 45.1431 63.9552 46.4713 63.2139 47.5523C62.4726 48.6024 61.546 49.4673 60.4341 50.1468C59.353 50.7954 58.133 51.2742 56.774 51.583C55.4149 51.861 54.0405 52 52.6506 52C49.7472 52 47.1527 51.4286 44.8671 50.2858C42.5815 49.1121 40.651 47.2743 39.0758 44.7725L42.0873 43.0583C42.8594 45.4983 44.0023 47.367 45.5157 48.6642C47.0601 49.9306 49.1295 50.6101 51.724 50.7028C52.1255 50.7336 52.527 50.7491 52.9286 50.7491C54.3185 50.7491 55.6775 50.5946 57.0056 50.2858C58.3337 49.9769 59.492 49.4209 60.4804 48.6179C61.1908 48.0619 61.7776 47.4596 62.2409 46.811C62.7042 46.1624 62.9668 45.3593 63.0285 44.4018C63.0594 44.2165 63.0749 44.0158 63.0749 43.7995C63.0749 42.2861 62.488 41.0043 61.3143 39.9541C60.1406 38.8731 58.55 38.1627 56.5423 37.8229L48.4345 36.433C47.0755 36.1859 45.9327 35.8153 45.0061 35.3211C44.0795 34.796 43.2919 34.1783 42.6432 33.4679C42.0255 32.7266 41.5931 31.939 41.346 31.1051C41.0989 30.2711 40.9754 29.4372 40.9754 28.6032C40.9754 28.4179 40.9754 28.2326 40.9754 28.0473C41.068 26.6882 41.4541 25.4528 42.1336 24.3408C42.844 23.198 43.7243 22.256 44.7744 21.5147C45.8555 20.7734 47.0292 20.2483 48.2955 19.9395C49.5619 19.6306 50.8437 19.4762 52.1409 19.4762C52.388 19.4762 52.6351 19.4762 52.8822 19.4762C55.1987 19.5379 57.2836 20.1866 59.1368 21.422C61.0209 22.6575 62.5807 24.2482 63.8162 26.1941L61.129 27.723C60.5113 25.6844 59.5229 24.032 58.1639 22.7656C56.8357 21.4684 55.0597 20.7889 52.8359 20.7271C52.6197 20.7271 52.4035 20.7271 52.1873 20.7271C49.6545 20.7271 47.5079 21.283 45.7474 22.395C43.9868 23.476 42.9676 25.0667 42.6896 27.167C42.6278 27.5067 42.5969 27.8465 42.5969 28.1863C42.5969 28.7422 42.6741 29.3445 42.8286 29.9931C43.0139 30.6418 43.4463 31.1668 44.1258 31.5684C44.8362 31.9699 45.6084 32.2942 46.4423 32.5413C47.3072 32.7884 48.2183 32.9892 49.1758 33.1436L57.2836 34.5335Z" fill="url(#paint0_radial_2242_2654)"/>
<defs>
<radialGradient id="paint0_radial_2242_2654" cx="0" cy="0" r="1" gradientTransform="matrix(0.0780041 21.3333 -40.6638 3.52913 34.2379 30.6667)" gradientUnits="userSpaceOnUse">
<stop stop-color="#FFD100"/>
<stop offset="1" stop-color="#60510A"/>
</radialGradient>
</defs>
</svg>
